<?xml version="1.0" encoding="UTF-8" standalone="no"?>
<!-- Generator: Adobe Illustrator 19.0.0, SVG Export Plug-In . SVG Version: 6.00 Build 0)  -->

<svg
   version="1.1"
   id="Layer_1"
   x="0px"
   y="0px"
   viewBox="0 0 1000 1000"
   style="enable-background:new 0 0 1000 1000;"
   xml:space="preserve"
   sodipodi:docname="lemma-logo.svg"
   inkscape:version="1.1 (c4e8f9e, 2021-05-24)"
   xmlns:inkscape="http://www.inkscape.org/namespaces/inkscape"
   xmlns:sodipodi="http://sodipodi.sourceforge.net/DTD/sodipodi-0.dtd"
   xmlns="http://www.w3.org/2000/svg"
   xmlns:svg="http://www.w3.org/2000/svg"><defs
   id="defs59" /><sodipodi:namedview
   id="namedview57"
   pagecolor="#ffffff"
   bordercolor="#666666"
   borderopacity="1.0"
   inkscape:pageshadow="2"
   inkscape:pageopacity="0.0"
   inkscape:pagecheckerboard="0"
   showgrid="false"
   inkscape:zoom="0.771"
   inkscape:cx="564.85084"
   inkscape:cy="409.20882"
   inkscape:window-width="1680"
   inkscape:window-height="997"
   inkscape:window-x="0"
   inkscape:window-y="25"
   inkscape:window-maximized="1"
   inkscape:current-layer="Layer_1" />
<style
   type="text/css"
   id="style51">
	.st0{stroke:#000000;stroke-miterlimit:10;}
</style>
<path
   style="fill:#ffffff;stroke-width:1.29702"
   d="m -1.2970169,501.29702 c 0,-167.31518 0,-334.63035 0,-501.94552843 167.5313469,0 335.0626869,0 502.5940369,0 167.53136,0 335.06272,0 502.59408,0 0,167.31517843 0,334.63034843 0,501.94552843 V 1003.2425 H 501.29702 -1.2970169 Z"
   id="path321"
   sodipodi:nodetypes="ccccccccc" /><g
   id="XMLID_3_">
	<path
   id="XMLID_1_"
   class="st0"
   d="M785.8,467.4H183.5c-7.7,0-14-6.3-14-14v-55.1c0-7.7,6.3-14,14-14h602.3c7.7,0,14,6.3,14,14   v55.1C799.8,461.1,793.6,467.4,785.8,467.4z" />
	<path
   id="XMLID_2_"
   class="st0"
   d="M785.9,639.9h-55.1c-7.7,0-14-6.3-14-14V449.4c0-7.7,6.3-14,14-14h55.1c7.7,0,14,6.3,14,14   v176.5C799.9,633.6,793.7,639.9,785.9,639.9z" />
</g>
</svg>
